<?xml version="1.0" encoding="utf-8"?>
<!-- Generator: Adobe Illustrator 16.0.0, SVG Export Plug-In . SVG Version: 6.00 Build 0)  -->
<!DOCTYPE svg PUBLIC "-//W3C//DTD SVG 1.1//EN" "http://www.w3.org/Graphics/SVG/1.1/DTD/svg11.dtd">
<svg version="1.1" id="Layer_1" xmlns="http://www.w3.org/2000/svg" xmlns:xlink="http://www.w3.org/1999/xlink" x="0px" y="0px"
   width="277.489px" height="277.489px" viewBox="0 0 277.489 277.489" enable-background="new 0 0 277.489 277.489"
   xml:space="preserve">
<g>
  <path fill="#D34129" d="M0,139.101C-0.2,62.477,61.76,0.195,138.381,0c76.627-0.198,138.906,61.763,139.107,138.387
    c0.188,76.627-61.767,138.905-138.394,139.101C62.467,277.689,0.195,215.729,0,139.101z"/>
  <g>
    <path fill="#FFFFFF" d="M107.485,175.595l-0.129-48.501l-14.103,0.032l-0.091-33.73l14.115-0.032L107.2,63.168l41.878-0.11
      l0.078,30.195l27.776-0.071l0.09,33.73l-27.775,0.071l0.104,40.341c0.026,8.381,3.775,11.896,11.494,11.878
      c5.514-0.02,10.795-1.577,15.854-4.01l0.092,32.843c-7.486,4.21-17.398,6.882-29.087,6.915
      C122.573,215.015,107.563,204.032,107.485,175.595z"/>
  </g>
</g>
</svg>
